<?xml version="1.0" encoding="UTF-8" standalone="no"?>
<!-- Created with Inkscape (http://www.inkscape.org/) -->

<svg
   xmlns:dc="http://purl.org/dc/elements/1.1/"
   xmlns:cc="http://creativecommons.org/ns#"
   xmlns:rdf="http://www.w3.org/1999/02/22-rdf-syntax-ns#"
   xmlns:svg="http://www.w3.org/2000/svg"
   xmlns="http://www.w3.org/2000/svg"
   xmlns:sodipodi="http://sodipodi.sourceforge.net/DTD/sodipodi-0.dtd"
   xmlns:inkscape="http://www.inkscape.org/namespaces/inkscape"
   width="210mm"
   height="297mm"
   viewBox="0 0 210 297"
   version="1.1"
   id="svg8"
   inkscape:version="0.92.4 (5da689c313, 2019-01-14)"
   sodipodi:docname="drawing.svg">
  <defs
     id="defs2">
    <clipPath
       clipPathUnits="userSpaceOnUse"
       id="clipPath4565">
      <g
         id="use4567"
         inkscape:label="Clip">
        <text
           xml:space="preserve"
           style="font-style:normal;font-weight:normal;font-size:70.55555725px;line-height:1.25;font-family:sans-serif;letter-spacing:0px;word-spacing:0px;fill:#000000;fill-opacity:1;stroke:none;stroke-width:0.26458332"
           x="17.877361"
           y="97.854507"
           id="text4573"><tspan
             sodipodi:role="line"
             x="17.877361"
             y="97.854507"
             style="font-size:70.55555725px;stroke-width:0.26458332"
             id="tspan4569">Х</tspan><tspan
             sodipodi:role="line"
             x="17.877361"
             y="186.04895"
             style="font-size:70.55555725px;stroke-width:0.26458332"
             id="tspan4571" /></text>
      </g>
    </clipPath>
  </defs>
  <sodipodi:namedview
     id="base"
     pagecolor="#ffffff"
     bordercolor="#666666"
     borderopacity="1.0"
     inkscape:pageopacity="0.0"
     inkscape:pageshadow="2"
     inkscape:zoom="0.644176"
     inkscape:cx="-33.621615"
     inkscape:cy="626.20891"
     inkscape:document-units="mm"
     inkscape:current-layer="text4579"
     showgrid="false"
     inkscape:window-width="1920"
     inkscape:window-height="1001"
     inkscape:window-x="-9"
     inkscape:window-y="-9"
     inkscape:window-maximized="1" />
  <metadata
     id="metadata5">
    <rdf:RDF>
      <cc:Work
         rdf:about="">
        <dc:format>image/svg+xml</dc:format>
        <dc:type
           rdf:resource="http://purl.org/dc/dcmitype/StillImage" />
        <dc:title />
      </cc:Work>
    </rdf:RDF>
  </metadata>
  <g
     inkscape:label="Layer 1"
     inkscape:groupmode="layer"
     id="layer1">
    <flowRoot
       xml:space="preserve"
       id="flowRoot14"
       style="fill:black;fill-opacity:1;stroke:none;font-family:sans-serif;font-style:normal;font-weight:normal;font-size:40px;line-height:1.25;letter-spacing:0px;word-spacing:0px"><flowRegion
         id="flowRegion16"><rect
           id="rect18"
           width="22.857143"
           height="48.57143"
           x="48.57143"
           y="562.51971" /></flowRegion><flowPara
         id="flowPara20" /></flowRoot>    <flowRoot
       xml:space="preserve"
       id="flowRoot22"
       style="fill:black;fill-opacity:1;stroke:none;font-family:sans-serif;font-style:normal;font-weight:normal;font-size:40px;line-height:1.25;letter-spacing:0px;word-spacing:0px"><flowRegion
         id="flowRegion24"><rect
           id="rect26"
           width="28.571428"
           height="62.857143"
           x="45.714287"
           y="562.51971" /></flowRegion><flowPara
         id="flowPara28" /></flowRoot>    <g
       aria-label="Хаос
"
       style="font-style:normal;font-weight:normal;font-size:70.55554962px;line-height:1.25;font-family:sans-serif;letter-spacing:0px;word-spacing:0px;fill:#000000;fill-opacity:1;stroke:none;stroke-width:0.26458332"
       id="text4579">
      <path
         d="M 65.330847,28.836329 47.623057,54.19223 65.296396,80.133797 H 57.407128 L 43.420041,59.015363 29.088445,80.133797 H 21.647039 L 39.527083,54.502288 22.060451,28.836329 h 7.854817 L 43.7301,49.679155 57.85499,28.836329 Z"
         style="stroke-width:0.26458332"
         id="path4583" />
      <path
         d="m 103.95036,80.133797 h -6.442324 v -4.099664 q -0.861274,0.585667 -2.342665,1.653646 -1.44694,1.033529 -2.824978,1.653646 -1.619195,0.792372 -3.720703,1.309136 -2.101508,0.551215 -4.926486,0.551215 -5.202094,0 -8.819444,-3.445095 -3.617349,-3.445095 -3.617349,-8.784993 0,-4.375271 1.860351,-7.062445 1.894802,-2.721625 5.374348,-4.271918 3.513998,-1.550293 8.440484,-2.101508 4.926486,-0.551215 10.576442,-0.826823 v -0.999077 q 0,-2.204861 -0.792372,-3.651801 -0.757921,-1.44694 -2.204861,-2.273763 -1.378038,-0.792372 -3.307291,-1.06798 -1.929254,-0.275607 -4.030762,-0.275607 -2.54937,0 -5.684407,0.689019 -3.135036,0.654568 -6.476779,1.929253 h -0.344509 v -6.580132 q 1.894802,-0.516764 5.477701,-1.136881 3.582899,-0.620117 7.062445,-0.620117 4.065213,0 7.062445,0.689019 3.031684,0.654568 5.236545,2.273763 2.170409,1.584743 3.307289,4.099663 1.13688,2.514919 1.13688,6.235622 z M 97.508036,70.659785 V 59.945539 q -2.962782,0.172255 -6.993543,0.516764 -3.996311,0.34451 -6.338976,0.999078 -2.790527,0.792372 -4.513074,2.480468 -1.722548,1.653646 -1.722548,4.581977 0,3.307291 1.998155,4.995388 1.998156,1.653646 6.097819,1.653646 3.410644,0 6.235622,-1.309137 2.824978,-1.343587 5.236545,-3.203938 z"
         style="stroke-width:0.26458332"
         id="path4585" />
      <path
         d="m 149.28782,60.910165 q 0,9.40511 -4.82313,14.848361 -4.82314,5.44325 -12.91911,5.44325 -8.16488,0 -12.98801,-5.44325 -4.78868,-5.443251 -4.78868,-14.848361 0,-9.405109 4.78868,-14.84836 4.82313,-5.477701 12.98801,-5.477701 8.09597,0 12.91911,5.477701 4.82313,5.443251 4.82313,14.84836 z m -6.68348,0 q 0,-7.475856 -2.92833,-11.093206 -2.92834,-3.651801 -8.13043,-3.651801 -5.271,0 -8.19933,3.651801 -2.89388,3.61735 -2.89388,11.093206 0,7.2347 2.92833,10.989854 2.92834,3.720703 8.16488,3.720703 5.16764,0 8.09597,-3.686252 2.96279,-3.720703 2.96279,-11.024305 z"
         style="stroke-width:0.26458332"
         id="path4587" />
      <path
         d="m 188.14849,77.72223 q -3.96186,1.860351 -6.82129,2.54937 -2.82498,0.72347 -5.64995,0.72347 -4.20302,0 -7.71702,-1.205783 -3.514,-1.240234 -6.02891,-3.720703 -2.51492,-2.480468 -3.92741,-6.270073 -1.37804,-3.789605 -1.37804,-8.853895 0,-9.198404 5.09874,-14.676105 5.09874,-5.512152 13.95264,-5.512152 3.34174,0 6.54568,0.930175 3.23839,0.930176 5.92556,2.273763 v 7.200249 h -0.37896 q -3.20394,-2.446017 -6.33898,-3.61735 -3.10058,-1.171332 -6.02891,-1.171332 -5.75331,0 -8.9228,3.858506 -3.13504,3.858507 -3.13504,10.714246 0,6.85574 3.13504,10.645345 3.13504,3.789604 8.9228,3.789604 2.0326,0 4.03076,-0.516764 2.0326,-0.516764 3.68625,-1.343587 1.30914,-0.654568 2.68717,-1.550293 1.41249,-0.930176 1.96371,-1.378038 h 0.37896 z"
         style="stroke-width:0.26458332"
         id="path4589" />
    </g>
  </g>
</svg>
